<svg width="383" height="560" viewBox="0 0 383 560" fill="none" xmlns="http://www.w3.org/2000/svg">
<g clip-path="url(#clip0_3_12)">
<path d="M192.162 290.576L15.5869 165.74L192.162 290.576ZM192.162 290.576L102.245 390.216L61.5859 375.667H61.5856C53.7388 372.862 44.7919 372.776 35.9617 375.383C27.132 377.989 18.8265 383.164 12.1568 390.2C9.14845 393.375 6.68577 397.014 4.91075 400.909C3.13575 404.805 2.08082 408.887 1.81356 412.923C1.54628 416.961 2.07202 420.877 3.37183 424.446C4.67197 428.015 6.71962 431.162 9.40134 433.699L40.8467 463.528L24.8506 487.566C18.9947 496.361 15.9693 506.415 16.3177 516.049C16.6663 525.688 20.3739 534.326 26.8559 540.475C33.3379 546.624 42.1552 549.868 51.793 549.701C61.4256 549.535 71.297 545.975 79.7608 539.654H79.7613L102.872 522.367L134.361 552.238C144.792 562.132 162.064 560.744 174.572 550.025L174.591 550.008L174.609 549.991L177.565 547.175L177.583 547.158L177.6 547.14C184.254 540.105 188.968 531.539 191.097 522.587C193.225 513.634 192.668 504.707 189.46 497.021L172.841 457.136L267.124 362.333L399.081 529.529C399.437 529.98 399.808 530.419 400.194 530.843L400.203 530.853L400.213 530.863L401.356 532.047L401.371 532.062L401.386 532.077C412.963 543.059 432.866 540.478 445.786 526.839C460.479 511.329 467.3 490.623 463.988 472.281L463.983 472.253L463.977 472.226L462.801 467.38L462.796 467.359L462.79 467.339L394.776 233.945L516.295 111.736C529.866 98.085 538.457 80.4555 540.15 62.7021C541.845 44.943 536.496 28.4874 525.211 16.9996L525.206 16.9948L525.201 16.99L523.968 15.7702L523.306 16.4403L523.953 15.7565C518.062 10.1683 510.881 6.06921 502.845 3.69781C494.809 1.32671 486.086 0.732205 477.195 1.93766C468.304 3.143 459.421 6.12404 451.071 10.6968C442.721 15.2695 435.067 21.3439 428.56 28.5595L314.365 155.129L74.2241 98.7387C54.5139 94.0921 31.7765 101.995 15.7559 118.906C12.4321 122.417 9.76011 126.475 7.91785 130.815C6.07567 135.156 5.10238 139.687 5.07225 144.112C5.04209 148.538 5.95619 152.76 7.76768 156.494C9.57961 160.229 12.2443 163.382 15.5861 165.74L192.162 290.576Z" stroke="#FF5000" stroke-width="2"/>
</g>
<defs>
<clipPath id="clip0_3_12">
<rect width="383" height="560" fill="white"/>
</clipPath>
</defs>
</svg>
