<svg width="267" height="67" viewBox="0 0 267 67" fill="none" xmlns="http://www.w3.org/2000/svg">
<path d="M233.892 0.534H33.108C15.1179 0.534 0.533997 15.1179 0.533997 33.108C0.533997 51.0981 15.1179 65.682 33.108 65.682H233.892C251.882 65.682 266.466 51.0981 266.466 33.108C266.466 15.1179 251.882 0.534 233.892 0.534Z" fill="url(#paint0_linear_2_5)" stroke="url(#paint1_radial_2_5)" stroke-width="1.068"/>
<path d="M23.5013 32.8786C23.5013 30.7728 23.9716 28.8919 24.912 27.2359C25.8729 25.5594 27.1711 24.2612 28.8067 23.3412C30.4627 22.4008 32.3129 21.9305 34.3574 21.9305C36.7494 21.9305 38.845 22.5439 40.6441 23.7705C42.4432 24.9972 43.7006 26.6941 44.4161 28.8612H39.4788C38.9881 27.839 38.293 27.0723 37.3934 26.5612C36.5143 26.0501 35.4921 25.7946 34.3267 25.7946C33.0796 25.7946 31.9654 26.091 30.984 26.6839C30.0232 27.2563 29.2667 28.0741 28.7147 29.1372C28.1831 30.2004 27.9174 31.4475 27.9174 32.8786C27.9174 34.2893 28.1831 35.5364 28.7147 36.62C29.2667 37.6831 30.0232 38.5111 30.984 39.104C31.9654 39.6764 33.0796 39.9626 34.3267 39.9626C35.4921 39.9626 36.5143 39.7071 37.3934 39.196C38.293 38.6644 38.9881 37.8875 39.4788 36.8653H44.4161C43.7006 39.0529 42.4432 40.76 40.6441 41.9867C38.8654 43.1929 36.7699 43.796 34.3574 43.796C32.3129 43.796 30.4627 43.336 28.8067 42.416C27.1711 41.4755 25.8729 40.1773 24.912 38.5213C23.9716 36.8653 23.5013 34.9844 23.5013 32.8786ZM58.0193 43.8267C56.0157 43.8267 54.1757 43.3564 52.4992 42.416C50.8228 41.4755 49.4939 40.1773 48.5126 38.5213C47.5312 36.8448 47.0405 34.9537 47.0405 32.8479C47.0405 30.7626 47.5312 28.8919 48.5126 27.2359C49.4939 25.5594 50.8228 24.251 52.4992 23.3105C54.1757 22.3701 56.0157 21.8999 58.0193 21.8999C60.0433 21.8999 61.8833 22.3701 63.5393 23.3105C65.2158 24.251 66.5344 25.5594 67.4953 27.2359C68.4767 28.8919 68.9673 30.7626 68.9673 32.8479C68.9673 34.9537 68.4767 36.8448 67.4953 38.5213C66.5344 40.1773 65.2158 41.4755 63.5393 42.416C61.8629 43.3564 60.0228 43.8267 58.0193 43.8267ZM58.0193 39.9933C59.3073 39.9933 60.442 39.7071 61.4233 39.1346C62.4046 38.5417 63.1713 37.7035 63.7233 36.62C64.2753 35.5364 64.5513 34.2791 64.5513 32.8479C64.5513 31.4168 64.2753 30.1697 63.7233 29.1066C63.1713 28.023 62.4046 27.195 61.4233 26.6226C60.442 26.0501 59.3073 25.7639 58.0193 25.7639C56.7313 25.7639 55.5864 26.0501 54.5846 26.6226C53.6033 27.195 52.8366 28.023 52.2846 29.1066C51.7326 30.1697 51.4566 31.4168 51.4566 32.8479C51.4566 34.2791 51.7326 35.5364 52.2846 36.62C52.8366 37.7035 53.6033 38.5417 54.5846 39.1346C55.5864 39.7071 56.7313 39.9933 58.0193 39.9933ZM95.499 22.2065V43.612H91.2056V29.6892L85.4709 43.612H82.2202L76.4549 29.6892V43.612H72.1615V22.2065H77.0375L83.8456 38.1226L90.6536 22.2065H95.499ZM115.353 28.8306C115.353 29.9755 115.077 31.0488 114.525 32.0506C113.994 33.0524 113.145 33.8599 111.98 34.4733C110.835 35.0866 109.383 35.3933 107.625 35.3933H104.037V43.612H99.7437V22.2065H107.625C109.281 22.2065 110.692 22.4928 111.857 23.0652C113.022 23.6377 113.891 24.4248 114.464 25.4266C115.057 26.4283 115.353 27.563 115.353 28.8306ZM107.441 31.9279C108.627 31.9279 109.506 31.6621 110.078 31.1306C110.651 30.5786 110.937 29.8119 110.937 28.8306C110.937 26.7452 109.772 25.7026 107.441 25.7026H104.037V31.9279H107.441ZM129.441 43.612L124.719 35.2706H122.695V43.612H118.401V22.2065H126.436C128.092 22.2065 129.503 22.503 130.668 23.0959C131.833 23.6683 132.702 24.4554 133.275 25.4572C133.868 26.4386 134.164 27.5426 134.164 28.7692C134.164 30.1799 133.755 31.4577 132.937 32.6026C132.12 33.727 130.903 34.5039 129.288 34.9333L134.409 43.612H129.441ZM122.695 32.0506H126.283C127.448 32.0506 128.317 31.7746 128.889 31.2226C129.462 30.6501 129.748 29.863 129.748 28.8612C129.748 27.8799 129.462 27.1235 128.889 26.5919C128.317 26.0399 127.448 25.7639 126.283 25.7639H122.695V32.0506ZM142.341 25.6719V31.0386H149.547V34.4426H142.341V40.116H150.467V43.612H138.047V22.1759H150.467V25.6719H142.341ZM174.802 39.5333H166.276L164.866 43.612H160.358L168.055 22.1759H173.054L180.751 43.612H176.212L174.802 39.5333ZM173.636 36.0986L170.539 27.1439L167.442 36.0986H173.636ZM199.575 47.384L196.324 43.4893C195.425 43.7142 194.505 43.8267 193.564 43.8267C191.561 43.8267 189.721 43.3564 188.044 42.416C186.368 41.4755 185.039 40.1773 184.058 38.5213C183.076 36.8448 182.586 34.9537 182.586 32.8479C182.586 30.7626 183.076 28.8919 184.058 27.2359C185.039 25.5594 186.368 24.251 188.044 23.3105C189.721 22.3701 191.561 21.8999 193.564 21.8999C195.588 21.8999 197.428 22.3701 199.084 23.3105C200.761 24.251 202.08 25.5594 203.04 27.2359C204.022 28.8919 204.512 30.7626 204.512 32.8479C204.512 34.7493 204.104 36.4871 203.286 38.0613C202.488 39.6151 201.395 40.8826 200.004 41.864L204.911 47.384H199.575ZM187.002 32.8479C187.002 34.2791 187.278 35.5364 187.83 36.62C188.382 37.7035 189.148 38.5417 190.13 39.1346C191.132 39.7071 192.276 39.9933 193.564 39.9933C194.852 39.9933 195.987 39.7071 196.968 39.1346C197.95 38.5417 198.716 37.7035 199.268 36.62C199.82 35.5364 200.096 34.2791 200.096 32.8479C200.096 31.4168 199.82 30.1697 199.268 29.1066C198.716 28.023 197.95 27.195 196.968 26.6226C195.987 26.0501 194.852 25.7639 193.564 25.7639C192.276 25.7639 191.132 26.0501 190.13 26.6226C189.148 27.195 188.382 28.023 187.83 29.1066C187.278 30.1697 187.002 31.4168 187.002 32.8479ZM211.999 22.2065V35.4546C211.999 36.9062 212.377 38.0204 213.133 38.7973C213.89 39.5538 214.953 39.932 216.323 39.932C217.713 39.932 218.786 39.5538 219.543 38.7973C220.299 38.0204 220.677 36.9062 220.677 35.4546V22.2065H225.001V35.4239C225.001 37.2435 224.603 38.7871 223.805 40.0546C223.028 41.3018 221.975 42.2422 220.647 42.876C219.338 43.5098 217.876 43.8267 216.261 43.8267C214.667 43.8267 213.215 43.5098 211.907 42.876C210.619 42.2422 209.596 41.3018 208.84 40.0546C208.083 38.7871 207.705 37.2435 207.705 35.4239V22.2065H211.999ZM233.443 22.2065V43.612H229.149V22.2065H233.443Z" fill="white"/>
<defs>
<linearGradient id="paint0_linear_2_5" x1="-2.46675e-06" y1="33.108" x2="267" y2="33.108" gradientUnits="userSpaceOnUse">
<stop stop-color="#FF7231"/>
<stop offset="1" stop-color="#FF5000"/>
</linearGradient>
<radialGradient id="paint1_radial_2_5" cx="0" cy="0" r="1" gradientUnits="userSpaceOnUse" gradientTransform="translate(116.98 69.42) rotate(-48.1341) scale(129.788 623.666)">
<stop stop-color="white"/>
<stop offset="1" stop-color="white" stop-opacity="0"/>
</radialGradient>
</defs>
</svg>
