<svg width="188" height="41" viewBox="0 0 188 41" fill="none" xmlns="http://www.w3.org/2000/svg">
<path d="M48.1632 33.2283L66.9632 33.2389" stroke="#FF5000" stroke-width="0.969072" stroke-linecap="round"/>
<path d="M80.2392 33.2478C80.2392 33.0838 80.1987 32.9215 80.1201 32.7705C80.0416 32.6195 79.9266 32.4829 79.782 32.3687C79.6373 32.2545 79.4659 32.165 79.278 32.1057C79.0901 32.0463 78.8894 32.0182 78.6879 32.0231L75.1026 32.1086L72.4889 27.7125C72.2793 27.3593 71.8381 27.134 71.3553 27.134C71.2562 27.1341 71.1583 27.1512 71.0679 27.1843C70.9776 27.2173 70.8969 27.2656 70.8312 27.3259C70.7654 27.3863 70.7162 27.4572 70.6867 27.5342C70.6572 27.6111 70.648 27.6922 70.6599 27.7722L71.3122 32.1991L68.4632 32.2668L68.0924 31.4415C68.0237 31.2887 67.899 31.1568 67.7351 31.0635C67.5712 30.9703 67.376 30.9203 67.176 30.9202C67.0864 30.9202 66.9977 30.9346 66.9149 30.9625C66.8321 30.9904 66.757 31.0313 66.6936 31.0828C66.6303 31.1344 66.5801 31.1956 66.5459 31.2629C66.5117 31.3303 66.4941 31.4025 66.4942 31.4753V32.3837L65.8813 32.4877C65.6666 32.5241 65.4739 32.6195 65.3355 32.7579C65.1972 32.8962 65.1216 33.0691 65.1216 33.2475C65.1216 33.4258 65.1972 33.5987 65.3355 33.7371C65.4739 33.8755 65.6666 33.9709 65.8813 34.0073L66.4942 34.1106V35.0203C66.4942 35.3034 66.7538 35.536 67.0905 35.5705L67.176 35.5748C67.3758 35.5746 67.5707 35.5246 67.7345 35.4315C67.8982 35.3384 68.0229 35.2067 68.0916 35.0541L68.4639 34.2294L71.3024 34.2971L70.6599 38.6569C70.6582 38.6681 70.657 38.6794 70.6561 38.6907L70.6546 38.7246C70.6546 39.0391 70.9687 39.2945 71.3553 39.2945C71.798 39.2945 72.2051 39.1056 72.4321 38.8021L72.4889 38.716L75.064 34.3864L78.6887 34.4725C79.088 34.482 79.4757 34.362 79.7663 34.139C80.0569 33.916 80.2267 33.6083 80.2384 33.2835L80.2392 33.2478Z" fill="#FF5000"/>
<path d="M56.0729 21V10.1855H58.5366L58.7765 11.6464C59.1253 11.1231 59.5832 10.7088 60.1501 10.4036C60.7315 10.0838 61.4002 9.9239 62.156 9.9239C63.8276 9.9239 65.0122 10.5707 65.7099 11.8644C66.1024 11.2684 66.6257 10.796 67.2798 10.4472C67.9484 10.0983 68.6752 9.9239 69.4601 9.9239C70.8701 9.9239 71.953 10.3454 72.7088 11.1885C73.4647 12.0316 73.8426 13.2671 73.8426 14.8951V21H71.0518V15.1567C71.0518 14.2264 70.8701 13.5142 70.5067 13.02C70.1578 12.5258 69.6127 12.2787 68.8714 12.2787C68.1156 12.2787 67.5051 12.5548 67.04 13.1072C66.5893 13.6595 66.364 14.4299 66.364 15.4183V21H63.5732V15.1567C63.5732 14.2264 63.3915 13.5142 63.0281 13.02C62.6647 12.5258 62.1051 12.2787 61.3493 12.2787C60.608 12.2787 60.0047 12.5548 59.5396 13.1072C59.089 13.6595 58.8637 14.4299 58.8637 15.4183V21H56.0729ZM77.482 25.7967L79.9894 20.2805H79.3353L75.1273 10.1855H78.158L81.1886 17.7949L84.3501 10.1855H87.3154L80.4473 25.7967H77.482ZM93.0772 21.2616C92.1179 21.2616 91.2748 21.109 90.548 20.8038C89.8213 20.484 89.2398 20.0479 88.8038 19.4956C88.3677 18.9432 88.1061 18.3037 88.0189 17.5769H90.8315C90.9187 17.9984 91.1513 18.3618 91.5292 18.667C91.9217 18.9578 92.4231 19.1031 93.0336 19.1031C93.6441 19.1031 94.0874 18.9796 94.3636 18.7325C94.6543 18.4853 94.7997 18.2019 94.7997 17.8821C94.7997 17.417 94.5962 17.1045 94.1892 16.9446C93.7822 16.7702 93.2153 16.603 92.4885 16.4431C92.0234 16.3414 91.551 16.2178 91.0713 16.0724C90.5916 15.9271 90.1483 15.7454 89.7413 15.5274C89.3489 15.2948 89.0291 15.0041 88.782 14.6552C88.5349 14.2918 88.4113 13.8485 88.4113 13.3252C88.4113 12.3659 88.7892 11.5592 89.5451 10.9051C90.3155 10.251 91.3911 9.9239 92.772 9.9239C94.0511 9.9239 95.0686 10.2219 95.8244 10.8178C96.5948 11.4138 97.0527 12.2351 97.1981 13.2816H94.5599C94.4 12.4822 93.7967 12.0824 92.7502 12.0824C92.2269 12.0824 91.8199 12.1842 91.5292 12.3877C91.253 12.5912 91.1149 12.8456 91.1149 13.1508C91.1149 13.4706 91.3257 13.725 91.7472 13.9139C92.1688 14.1029 92.7284 14.2773 93.4261 14.4372C94.1819 14.6116 94.8724 14.8079 95.4974 15.0259C96.137 15.2294 96.6457 15.5419 97.0236 15.9634C97.4016 16.3704 97.5905 16.9591 97.5905 17.7295C97.6051 18.3981 97.4306 19.0014 97.0672 19.5392C96.7039 20.077 96.1806 20.4985 95.4974 20.8038C94.8142 21.109 94.0075 21.2616 93.0772 21.2616ZM101.567 8.5067C101.058 8.5067 100.637 8.35406 100.303 8.04882C99.9829 7.74357 99.823 7.35839 99.823 6.89325C99.823 6.42811 99.9829 6.05019 100.303 5.75947C100.637 5.45423 101.058 5.30161 101.567 5.30161C102.076 5.30161 102.49 5.45423 102.81 5.75947C103.144 6.05019 103.312 6.42811 103.312 6.89325C103.312 7.35839 103.144 7.74357 102.81 8.04882C102.49 8.35406 102.076 8.5067 101.567 8.5067ZM100.172 21V10.1855H102.963V21H100.172ZM105.876 21V10.1855H108.339L108.579 11.6464C108.928 11.1231 109.386 10.7088 109.953 10.4036C110.534 10.0838 111.203 9.9239 111.959 9.9239C113.63 9.9239 114.815 10.5707 115.513 11.8644C115.905 11.2684 116.428 10.796 117.083 10.4472C117.751 10.0983 118.478 9.9239 119.263 9.9239C120.673 9.9239 121.756 10.3454 122.512 11.1885C123.267 12.0316 123.645 13.2671 123.645 14.8951V21H120.855V15.1567C120.855 14.2264 120.673 13.5142 120.309 13.02C119.961 12.5258 119.415 12.2787 118.674 12.2787C117.918 12.2787 117.308 12.5548 116.843 13.1072C116.392 13.6595 116.167 14.4299 116.167 15.4183V21H113.376V15.1567C113.376 14.2264 113.194 13.5142 112.831 13.02C112.467 12.5258 111.908 12.2787 111.152 12.2787C110.411 12.2787 109.807 12.5548 109.342 13.1072C108.892 13.6595 108.666 14.4299 108.666 15.4183V21H105.876ZM131.113 21C129.98 21 129.071 20.7238 128.388 20.1715C127.705 19.6191 127.363 18.638 127.363 17.228V12.5185H125.51V10.1855H127.363L127.69 7.28571H130.154V10.1855H133.076V12.5185H130.154V17.2498C130.154 17.7731 130.263 18.1365 130.481 18.34C130.714 18.529 131.106 18.6234 131.659 18.6234H133.01V21H131.113ZM135.472 21V10.1855H137.958L138.219 12.2133C138.612 11.5155 139.142 10.9632 139.811 10.5562C140.494 10.1347 141.293 9.9239 142.209 9.9239V12.8674H141.424C140.814 12.8674 140.269 12.9618 139.789 13.1508C139.309 13.3398 138.931 13.6668 138.655 14.1319C138.394 14.5971 138.263 15.2439 138.263 16.0724V21H135.472ZM147.845 21.2616C146.915 21.2616 146.152 21.1163 145.556 20.8256C144.96 20.5203 144.516 20.1206 144.226 19.6264C143.935 19.1322 143.79 18.5871 143.79 17.9911C143.79 16.9882 144.182 16.1742 144.967 15.5492C145.752 14.9241 146.929 14.6116 148.499 14.6116H151.246V14.35C151.246 13.6087 151.036 13.0636 150.614 12.7147C150.192 12.3659 149.669 12.1915 149.044 12.1915C148.477 12.1915 147.983 12.3295 147.562 12.6057C147.14 12.8674 146.878 13.2598 146.777 13.7831H144.051C144.124 12.9982 144.386 12.315 144.836 11.7336C145.301 11.1522 145.897 10.7088 146.624 10.4036C147.351 10.0838 148.165 9.9239 149.066 9.9239C150.607 9.9239 151.82 10.3091 152.707 11.0795C153.594 11.8499 154.037 12.94 154.037 14.35V21H151.661L151.399 19.2557C151.079 19.8372 150.629 20.3168 150.047 20.6948C149.48 21.0727 148.746 21.2616 147.845 21.2616ZM148.477 19.0813C149.277 19.0813 149.895 18.8197 150.331 18.2964C150.781 17.7731 151.065 17.1263 151.181 16.3559H148.804C148.063 16.3559 147.532 16.494 147.213 16.7702C146.893 17.0318 146.733 17.3588 146.733 17.7513C146.733 18.1728 146.893 18.4999 147.213 18.7325C147.532 18.965 147.954 19.0813 148.477 19.0813ZM159.303 21L155.334 10.1855H158.256L161.003 18.3618L163.751 10.1855H166.672L162.682 21H159.303ZM173.155 21.2616C172.065 21.2616 171.098 21.0291 170.255 20.5639C169.412 20.0988 168.75 19.4447 168.271 18.6016C167.791 17.7586 167.551 16.7847 167.551 15.68C167.551 14.5607 167.784 13.5651 168.249 12.6929C168.729 11.8208 169.383 11.1449 170.211 10.6652C171.054 10.171 172.043 9.9239 173.177 9.9239C174.238 9.9239 175.175 10.1565 175.989 10.6216C176.803 11.0867 177.435 11.7263 177.886 12.5403C178.351 13.3398 178.584 14.2337 178.584 15.2221C178.584 15.382 178.577 15.5492 178.562 15.7236C178.562 15.898 178.555 16.0797 178.54 16.2687H170.32C170.378 17.1117 170.669 17.7731 171.192 18.2528C171.73 18.7325 172.377 18.9723 173.133 18.9723C173.7 18.9723 174.172 18.8487 174.55 18.6016C174.943 18.34 175.233 18.0057 175.422 17.5987H178.257C178.053 18.2819 177.712 18.9069 177.232 19.4738C176.767 20.0261 176.185 20.4622 175.488 20.782C174.805 21.1017 174.027 21.2616 173.155 21.2616ZM173.177 12.1915C172.493 12.1915 171.89 12.3877 171.367 12.7801C170.844 13.1581 170.509 13.7395 170.364 14.5244H175.749C175.706 13.8122 175.444 13.2453 174.964 12.8237C174.485 12.4022 173.889 12.1915 173.177 12.1915ZM180.931 21V5.30161H183.722V21H180.931Z" fill="#FF5000"/>
<path d="M85.0921 37.9227C84.3778 37.9227 83.7502 37.7666 83.2093 37.4546C82.6753 37.1356 82.2558 36.6917 81.9506 36.1231C81.6524 35.5544 81.5033 34.8991 81.5033 34.1571C81.5033 33.4151 81.6524 32.7632 81.9506 32.2015C82.2558 31.6328 82.6753 31.189 83.2093 30.87C83.7502 30.551 84.3778 30.3915 85.0921 30.3915C85.8133 30.3915 86.4409 30.551 86.9749 30.87C87.5158 31.189 87.9353 31.6328 88.2335 32.2015C88.5317 32.7632 88.6808 33.4151 88.6808 34.1571C88.6808 34.8991 88.5317 35.5544 88.2335 36.1231C87.9353 36.6917 87.5158 37.1356 86.9749 37.4546C86.4409 37.7666 85.8133 37.9227 85.0921 37.9227ZM85.0921 37.1529C85.6261 37.1529 86.0942 37.035 86.4964 36.7992C86.9055 36.5565 87.221 36.2133 87.443 35.7694C87.6718 35.3187 87.7862 34.7812 87.7862 34.1571C87.7862 33.533 87.6718 32.999 87.443 32.5552C87.221 32.1113 86.9055 31.7715 86.4964 31.5358C86.0942 31.293 85.6261 31.1717 85.0921 31.1717C84.5581 31.1717 84.0865 31.293 83.6774 31.5358C83.2752 31.7715 82.9596 32.1113 82.7308 32.5552C82.5089 32.999 82.3979 33.533 82.3979 34.1571C82.3979 34.7812 82.5089 35.3187 82.7308 35.7694C82.9596 36.2133 83.2752 36.5565 83.6774 36.7992C84.0865 37.035 84.5581 37.1529 85.0921 37.1529ZM92.6422 37.7978V32.6384H93.4328L93.4952 33.3873C93.6617 33.1099 93.8836 32.895 94.161 32.7424C94.4384 32.5898 94.7504 32.5136 95.0972 32.5136C95.5063 32.5136 95.8565 32.5968 96.1478 32.7632C96.446 32.9296 96.6748 33.1828 96.8343 33.5226C97.0146 33.2105 97.2608 32.9643 97.5729 32.784C97.8919 32.6037 98.2351 32.5136 98.6027 32.5136C99.2199 32.5136 99.7122 32.7008 100.08 33.0753C100.447 33.4428 100.631 34.0115 100.631 34.7812V37.7978H99.7677V34.8748C99.7677 34.3409 99.6602 33.9386 99.4453 33.6682C99.2303 33.3977 98.9217 33.2625 98.5195 33.2625C98.1034 33.2625 97.7566 33.4255 97.4792 33.7514C97.2088 34.0704 97.0736 34.5281 97.0736 35.1245V37.7978H96.1998V34.8748C96.1998 34.3409 96.0923 33.9386 95.8773 33.6682C95.6623 33.3977 95.3537 33.2625 94.9515 33.2625C94.5424 33.2625 94.1991 33.4255 93.9217 33.7514C93.6513 34.0704 93.516 34.5281 93.516 35.1245V37.7978H92.6422ZM103.83 37.9227C103.22 37.9227 102.734 37.7389 102.374 37.3714C102.013 36.9969 101.833 36.4248 101.833 35.655V32.6384H102.707V35.5614C102.707 36.6363 103.147 37.1737 104.028 37.1737C104.478 37.1737 104.849 37.0142 105.141 36.6952C105.439 36.3693 105.588 35.9081 105.588 35.3117V32.6384H106.462V37.7978H105.671L105.609 36.8721C105.449 37.198 105.21 37.4546 104.891 37.6418C104.579 37.8291 104.225 37.9227 103.83 37.9227ZM107.9 37.7978V32.6384H108.691L108.743 33.5642C108.909 33.2382 109.148 32.9816 109.46 32.7944C109.772 32.6072 110.126 32.5136 110.521 32.5136C111.132 32.5136 111.617 32.7008 111.978 33.0753C112.345 33.4428 112.529 34.0115 112.529 34.7812V37.7978H111.655V34.8748C111.655 33.8 111.211 33.2625 110.324 33.2625C109.88 33.2625 109.509 33.4255 109.211 33.7514C108.919 34.0704 108.774 34.5281 108.774 35.1245V37.7978H107.9ZM116.193 37.9227C115.68 37.9227 115.229 37.8048 114.841 37.569C114.46 37.3332 114.161 37.0107 113.946 36.6016C113.738 36.1924 113.634 35.7278 113.634 35.2077C113.634 34.6876 113.742 34.2264 113.957 33.8242C114.172 33.4151 114.47 33.0961 114.851 32.8672C115.233 32.6314 115.684 32.5136 116.204 32.5136C116.627 32.5136 117.001 32.6002 117.327 32.7736C117.653 32.947 117.906 33.1897 118.087 33.5018V30.3083H118.96V37.7978H118.17L118.087 36.9449C117.92 37.1945 117.681 37.4199 117.369 37.621C117.057 37.8221 116.665 37.9227 116.193 37.9227ZM116.287 37.1633C116.634 37.1633 116.939 37.0836 117.202 36.9241C117.473 36.7576 117.681 36.5288 117.826 36.2375C117.979 35.9463 118.055 35.6065 118.055 35.2181C118.055 34.8298 117.979 34.49 117.826 34.1987C117.681 33.9074 117.473 33.6821 117.202 33.5226C116.939 33.3561 116.634 33.2729 116.287 33.2729C115.947 33.2729 115.642 33.3561 115.372 33.5226C115.108 33.6821 114.9 33.9074 114.747 34.1987C114.602 34.49 114.529 34.8298 114.529 35.2181C114.529 35.6065 114.602 35.9463 114.747 36.2375C114.9 36.5288 115.108 36.7576 115.372 36.9241C115.642 37.0836 115.947 37.1633 116.287 37.1633ZM122.736 37.9227C122.25 37.9227 121.813 37.8117 121.425 37.5898C121.037 37.3679 120.728 37.0558 120.499 36.6536C120.277 36.2445 120.166 35.766 120.166 35.2181C120.166 34.6703 120.281 34.1952 120.51 33.793C120.738 33.3839 121.047 33.0683 121.435 32.8464C121.831 32.6245 122.271 32.5136 122.756 32.5136C123.242 32.5136 123.679 32.6245 124.067 32.8464C124.455 33.0683 124.761 33.3839 124.982 33.793C125.211 34.1952 125.326 34.6703 125.326 35.2181C125.326 35.766 125.211 36.2445 124.982 36.6536C124.754 37.0558 124.442 37.3679 124.046 37.5898C123.658 37.8117 123.221 37.9227 122.736 37.9227ZM122.736 37.1737C123.034 37.1737 123.311 37.1009 123.568 36.9553C123.824 36.8096 124.032 36.5912 124.192 36.2999C124.351 36.0087 124.431 35.6481 124.431 35.2181C124.431 34.7882 124.351 34.4275 124.192 34.1363C124.039 33.845 123.835 33.6266 123.578 33.481C123.322 33.3353 123.048 33.2625 122.756 33.2625C122.458 33.2625 122.181 33.3353 121.924 33.481C121.668 33.6266 121.46 33.845 121.3 34.1363C121.141 34.4275 121.061 34.7882 121.061 35.2181C121.061 35.6481 121.141 36.0087 121.3 36.2999C121.46 36.5912 121.664 36.8096 121.914 36.9553C122.17 37.1009 122.444 37.1737 122.736 37.1737ZM129.294 37.7978V32.6384H130.084L130.136 33.5642C130.303 33.2382 130.542 32.9816 130.854 32.7944C131.166 32.6072 131.52 32.5136 131.915 32.5136C132.525 32.5136 133.011 32.7008 133.371 33.0753C133.739 33.4428 133.923 34.0115 133.923 34.7812V37.7978H133.049V34.8748C133.049 33.8 132.605 33.2625 131.717 33.2625C131.273 33.2625 130.902 33.4255 130.604 33.7514C130.313 34.0704 130.167 34.5281 130.167 35.1245V37.7978H129.294ZM137.597 37.9227C137.112 37.9227 136.675 37.8117 136.287 37.5898C135.898 37.3679 135.59 37.0558 135.361 36.6536C135.139 36.2445 135.028 35.766 135.028 35.2181C135.028 34.6703 135.142 34.1952 135.371 33.793C135.6 33.3839 135.909 33.0683 136.297 32.8464C136.692 32.6245 137.133 32.5136 137.618 32.5136C138.103 32.5136 138.54 32.6245 138.929 32.8464C139.317 33.0683 139.622 33.3839 139.844 33.793C140.073 34.1952 140.187 34.6703 140.187 35.2181C140.187 35.766 140.073 36.2445 139.844 36.6536C139.615 37.0558 139.303 37.3679 138.908 37.5898C138.52 37.8117 138.083 37.9227 137.597 37.9227ZM137.597 37.1737C137.895 37.1737 138.173 37.1009 138.429 36.9553C138.686 36.8096 138.894 36.5912 139.054 36.2999C139.213 36.0087 139.293 35.6481 139.293 35.2181C139.293 34.7882 139.213 34.4275 139.054 34.1363C138.901 33.845 138.696 33.6266 138.44 33.481C138.183 33.3353 137.909 33.2625 137.618 33.2625C137.32 33.2625 137.042 33.3353 136.786 33.481C136.529 33.6266 136.321 33.845 136.162 34.1363C136.002 34.4275 135.922 34.7882 135.922 35.2181C135.922 35.6481 136.002 36.0087 136.162 36.2999C136.321 36.5912 136.526 36.8096 136.775 36.9553C137.032 37.1009 137.306 37.1737 137.597 37.1737ZM146.132 37.9227C145.514 37.9227 145.001 37.7666 144.592 37.4546C144.183 37.1425 143.944 36.7195 143.874 36.1855H144.769C144.824 36.456 144.967 36.6917 145.195 36.8929C145.431 37.087 145.747 37.1841 146.142 37.1841C146.51 37.1841 146.78 37.1078 146.953 36.9553C147.127 36.7958 147.213 36.6085 147.213 36.3936C147.213 36.0815 147.099 35.8734 146.87 35.7694C146.648 35.6654 146.333 35.5718 145.924 35.4886C145.646 35.4331 145.369 35.3533 145.091 35.2493C144.814 35.1453 144.582 34.9997 144.394 34.8124C144.207 34.6183 144.114 34.3651 144.114 34.0531C144.114 33.6023 144.28 33.2348 144.613 32.9504C144.953 32.6592 145.41 32.5136 145.986 32.5136C146.534 32.5136 146.981 32.6522 147.328 32.9296C147.682 33.2001 147.886 33.5884 147.942 34.0947H147.078C147.044 33.8312 146.929 33.6266 146.735 33.481C146.548 33.3284 146.295 33.2521 145.976 33.2521C145.664 33.2521 145.421 33.318 145.247 33.4497C145.081 33.5815 144.998 33.7549 144.998 33.9699C144.998 34.1779 145.105 34.3409 145.32 34.4588C145.542 34.5766 145.84 34.6772 146.215 34.7604C146.534 34.8298 146.836 34.9164 147.12 35.0205C147.411 35.1176 147.647 35.2667 147.827 35.4678C148.014 35.6619 148.108 35.9463 148.108 36.3207C148.115 36.7854 147.938 37.1702 147.578 37.4754C147.224 37.7736 146.742 37.9227 146.132 37.9227ZM151.676 37.9227C151.184 37.9227 150.747 37.8117 150.365 37.5898C149.984 37.361 149.682 37.0454 149.46 36.6432C149.245 36.241 149.138 35.766 149.138 35.2181C149.138 34.6772 149.245 34.2056 149.46 33.8034C149.675 33.3943 149.973 33.0787 150.355 32.8568C150.743 32.628 151.191 32.5136 151.697 32.5136C152.196 32.5136 152.626 32.628 152.987 32.8568C153.354 33.0787 153.635 33.3735 153.829 33.741C154.023 34.1085 154.12 34.5038 154.12 34.9269C154.12 35.0031 154.117 35.0794 154.11 35.1557C154.11 35.232 154.11 35.3187 154.11 35.4158H150.001C150.022 35.811 150.112 36.1404 150.272 36.404C150.438 36.6605 150.643 36.8547 150.885 36.9865C151.135 37.1182 151.399 37.1841 151.676 37.1841C152.037 37.1841 152.338 37.1009 152.581 36.9345C152.824 36.768 153.001 36.5427 153.111 36.2583H153.975C153.836 36.7368 153.569 37.1356 153.174 37.4546C152.786 37.7666 152.286 37.9227 151.676 37.9227ZM151.676 33.2521C151.26 33.2521 150.889 33.3804 150.563 33.637C150.244 33.8866 150.06 34.2542 150.012 34.7396H153.257C153.236 34.275 153.077 33.9109 152.779 33.6474C152.48 33.3839 152.113 33.2521 151.676 33.2521ZM157.161 37.9227C156.551 37.9227 156.066 37.7389 155.705 37.3714C155.344 36.9969 155.164 36.4248 155.164 35.655V32.6384H156.038V35.5614C156.038 36.6363 156.478 37.1737 157.359 37.1737C157.81 37.1737 158.181 37.0142 158.472 36.6952C158.77 36.3693 158.919 35.9081 158.919 35.3117V32.6384H159.793V37.7978H159.003L158.94 36.8721C158.781 37.198 158.541 37.4546 158.222 37.6418C157.91 37.8291 157.557 37.9227 157.161 37.9227ZM166.356 37.9227C165.864 37.9227 165.42 37.8117 165.025 37.5898C164.636 37.361 164.328 37.0454 164.099 36.6432C163.877 36.2341 163.766 35.759 163.766 35.2181C163.766 34.6772 163.877 34.2056 164.099 33.8034C164.328 33.3943 164.636 33.0787 165.025 32.8568C165.42 32.628 165.864 32.5136 166.356 32.5136C166.966 32.5136 167.479 32.6731 167.896 32.9921C168.319 33.3111 168.586 33.7375 168.696 34.2715H167.802C167.733 33.9525 167.563 33.7063 167.292 33.533C167.022 33.3527 166.706 33.2625 166.346 33.2625C166.054 33.2625 165.78 33.3353 165.524 33.481C165.267 33.6266 165.059 33.845 164.9 34.1363C164.74 34.4275 164.66 34.7882 164.66 35.2181C164.66 35.6481 164.74 36.0087 164.9 36.2999C165.059 36.5912 165.267 36.8131 165.524 36.9657C165.78 37.1113 166.054 37.1841 166.346 37.1841C166.706 37.1841 167.022 37.0974 167.292 36.9241C167.563 36.7438 167.733 36.4906 167.802 36.1647H168.696C168.592 36.6848 168.329 37.1078 167.906 37.4338C167.483 37.7597 166.966 37.9227 166.356 37.9227ZM169.917 37.7978V30.3083H170.791V33.5226C170.964 33.2036 171.21 32.9574 171.529 32.784C171.848 32.6037 172.195 32.5136 172.569 32.5136C173.166 32.5136 173.644 32.7008 174.005 33.0753C174.365 33.4428 174.546 34.0115 174.546 34.7812V37.7978H173.682V34.8748C173.682 33.8 173.249 33.2625 172.382 33.2625C171.931 33.2625 171.553 33.4255 171.248 33.7514C170.943 34.0704 170.791 34.5281 170.791 35.1245V37.7978H169.917ZM176.4 31.4941C176.227 31.4941 176.081 31.4387 175.963 31.3277C175.852 31.2098 175.797 31.0642 175.797 30.8908C175.797 30.7244 175.852 30.5857 175.963 30.4747C176.081 30.3638 176.227 30.3083 176.4 30.3083C176.567 30.3083 176.709 30.3638 176.827 30.4747C176.944 30.5857 177.003 30.7244 177.003 30.8908C177.003 31.0642 176.944 31.2098 176.827 31.3277C176.709 31.4387 176.567 31.4941 176.4 31.4941ZM175.963 37.7978V32.6384H176.837V37.7978H175.963ZM178.358 40.0863V32.6384H179.149L179.232 33.4914C179.399 33.2417 179.634 33.0163 179.94 32.8152C180.252 32.6141 180.647 32.5136 181.125 32.5136C181.639 32.5136 182.086 32.6314 182.467 32.8672C182.849 33.103 183.143 33.4255 183.351 33.8346C183.566 34.2438 183.674 34.7084 183.674 35.2285C183.674 35.7486 183.566 36.2133 183.351 36.6224C183.143 37.0246 182.845 37.3436 182.457 37.5794C182.075 37.8082 181.628 37.9227 181.115 37.9227C180.692 37.9227 180.314 37.836 179.981 37.6626C179.655 37.4892 179.406 37.2465 179.232 36.9345V40.0863H178.358ZM181.021 37.1633C181.368 37.1633 181.673 37.0836 181.937 36.9241C182.2 36.7576 182.408 36.5288 182.561 36.2375C182.713 35.9463 182.79 35.6065 182.79 35.2181C182.79 34.8298 182.713 34.49 182.561 34.1987C182.408 33.9074 182.2 33.6821 181.937 33.5226C181.673 33.3561 181.368 33.2729 181.021 33.2729C180.675 33.2729 180.369 33.3561 180.106 33.5226C179.842 33.6821 179.634 33.9074 179.482 34.1987C179.329 34.49 179.253 34.8298 179.253 35.2181C179.253 35.6065 179.329 35.9463 179.482 36.2375C179.634 36.5288 179.842 36.7576 180.106 36.9241C180.369 37.0836 180.675 37.1633 181.021 37.1633Z" fill="#FF5000"/>
<path fill-rule="evenodd" clip-rule="evenodd" d="M46.784 38.9569H5.75133C5.49432 38.9569 5.24783 38.8548 5.06609 38.6731L0.283835 33.8908C0.102099 33.7091 0 33.4626 0 33.2056V10.9967C0 10.4615 0.433868 10.0277 0.969072 10.0277H15.477C16.0122 10.0277 16.4461 9.59379 16.4461 9.05859V4.45793C16.4461 3.92273 16.8799 3.48886 17.4151 3.48886H30.7342C31.2694 3.48886 31.7033 3.92273 31.7033 4.45793V9.05859C31.7033 9.59379 32.1371 10.0277 32.6724 10.0277H46.784C47.3192 10.0277 47.7531 10.4615 47.7531 10.9967V37.9878C47.7531 38.523 47.3192 38.9569 46.784 38.9569ZM19.4183 8.64064V7.45176C19.4183 7.01403 19.7731 6.65918 20.2109 6.65918H27.3441C27.7818 6.65918 28.1367 7.01403 28.1367 7.45176V8.64064C28.1367 9.07837 27.7818 9.43322 27.3441 9.43322H20.2109C19.7731 9.43322 19.4183 9.07837 19.4183 8.64064Z" fill="#FF5000"/>
<path d="M42.3886 18.8997V21.4102V24.4793V27.5765V29.7988C42.3886 30.2392 42.0317 30.5961 41.5914 30.5961H35.1127H28.2026C27.7623 30.5961 27.4054 30.2392 27.4054 29.7988V27.5781V24.4793V21.2521V18.8997C27.4054 18.4594 27.7623 18.1024 28.2026 18.1024H34.897H41.5914C42.0317 18.1024 42.3886 18.4594 42.3886 18.8997Z" fill="#FBDA82"/>
<path d="M42.3886 18.8997V21.4102V24.4793V27.5765V29.7988C42.3886 30.2392 42.0317 30.5961 41.5914 30.5961H35.1127H28.2026C27.7623 30.5961 27.4054 30.2392 27.4054 29.7988V27.5781V24.4793V21.2521V18.8997C27.4054 18.4594 27.7623 18.1024 28.2026 18.1024H34.897H41.5914C42.0317 18.1024 42.3886 18.4594 42.3886 18.8997Z" stroke="#494949" stroke-width="0.155052"/>
<path d="M42.3886 18.8997V21.4102V24.4793V27.5765V29.7988C42.3886 30.2392 42.0317 30.5961 41.5914 30.5961H35.1127H28.2026C27.7623 30.5961 27.4054 30.2392 27.4054 29.7988V27.5781V24.4793V21.2521V18.8997C27.4054 18.4594 27.7623 18.1024 28.2026 18.1024H34.897H41.5914C42.0317 18.1024 42.3886 18.4594 42.3886 18.8997Z" stroke="url(#paint0_radial_2_2)" stroke-opacity="0.2" stroke-width="0.155052"/>
<path d="M42.3886 18.8995V21.41V24.4792V27.5763V29.7987C42.3886 30.239 42.0317 30.5959 41.5914 30.5959H35.1127H28.2026C27.7623 30.5959 27.4054 30.239 27.4054 29.7987V27.578V24.4792V21.252V18.8995C27.4054 18.4592 27.7623 18.1023 28.2026 18.1023H34.897H41.5914C42.0317 18.1023 42.3886 18.4592 42.3886 18.8995Z" stroke="#494949" stroke-width="0.155052"/>
<path d="M42.3886 18.8995V21.41V24.4792V27.5763V29.7987C42.3886 30.239 42.0317 30.5959 41.5914 30.5959H35.1127H28.2026C27.7623 30.5959 27.4054 30.239 27.4054 29.7987V27.578V24.4792V21.252V18.8995C27.4054 18.4592 27.7623 18.1023 28.2026 18.1023H34.897H41.5914C42.0317 18.1023 42.3886 18.4592 42.3886 18.8995Z" stroke="url(#paint1_radial_2_2)" stroke-opacity="0.2" stroke-width="0.155052"/>
<defs>
<radialGradient id="paint0_radial_2_2" cx="0" cy="0" r="1" gradientUnits="userSpaceOnUse" gradientTransform="translate(27.3279 18.6177) rotate(45.3165) scale(18.9687 15.8492)">
<stop stop-opacity="0"/>
<stop offset="1" stop-color="white" stop-opacity="0.62"/>
</radialGradient>
<radialGradient id="paint1_radial_2_2" cx="0" cy="0" r="1" gradientUnits="userSpaceOnUse" gradientTransform="translate(27.3279 18.6176) rotate(45.3165) scale(18.9687 15.8492)">
<stop stop-opacity="0"/>
<stop offset="1" stop-color="white" stop-opacity="0.62"/>
</radialGradient>
</defs>
</svg>
