<svg width="354" height="535" viewBox="0 0 354 535" fill="none" xmlns="http://www.w3.org/2000/svg">
<g clip-path="url(#clip0_3_19)">
<path d="M325.886 320.965L326.594 321.214L325.886 320.965ZM351.78 247.2L351.073 246.951L351.78 247.2ZM-122.916 97.7762L-123.592 98.1009L-122.916 97.7762ZM-99.889 145.714L-99.2129 145.389L-99.889 145.714ZM320.492 328.028L-107.056 533.402L-107.706 532.05L319.842 326.676L320.492 328.028ZM326.594 321.214C325.544 324.205 323.349 326.656 320.492 328.028L319.842 326.676C322.341 325.476 324.261 323.332 325.179 320.717L326.594 321.214ZM352.488 247.448L326.594 321.214L325.179 320.717L351.073 246.951L352.488 247.448ZM351.984 238.314C353.357 241.172 353.538 244.457 352.488 247.448L351.073 246.951C351.991 244.336 351.832 241.463 350.632 238.964L351.984 238.314ZM240.826 6.90503L351.984 238.314L350.632 238.964L239.474 7.55451L240.826 6.90503ZM224.878 1.3066C230.828 -1.55151 237.968 0.954987 240.826 6.90503L239.474 7.55451C236.975 2.35122 230.73 0.159287 225.527 2.6587L224.878 1.3066ZM73.7095 73.9205L224.878 1.3066L225.527 2.6587L74.3589 75.2726L73.7095 73.9205ZM59.7625 69.0248C62.2619 74.228 68.5062 76.42 73.7095 73.9205L74.3589 75.2726C68.4089 78.1308 61.2685 75.6243 58.4104 69.6742L59.7625 69.0248ZM36.7356 21.0873L59.7625 69.0248L58.4104 69.6742L35.3835 21.7368L36.7356 21.0873ZM20.7871 15.4889C26.7371 12.6308 33.8775 15.1373 36.7356 21.0873L35.3835 21.7368C32.8841 16.5335 26.6398 14.3416 21.4366 16.841L20.7871 15.4889ZM-117.993 82.1524L20.7871 15.4889L21.4366 16.841L-117.344 83.5045L-117.993 82.1524ZM-123.592 98.1009C-126.45 92.1509 -123.943 85.0105 -117.993 82.1524L-117.344 83.5045C-122.547 86.0039 -124.739 92.2482 -122.24 97.4514L-123.592 98.1009ZM-100.565 146.038L-123.592 98.1009L-122.24 97.4514L-99.2129 145.389L-100.565 146.038ZM-105.461 159.985C-100.258 157.486 -98.0656 151.242 -100.565 146.038L-99.2129 145.389C-96.3548 151.339 -98.8613 158.479 -104.811 161.337L-105.461 159.985ZM-252.5 230.616L-105.461 159.985L-104.811 161.337L-251.85 231.968L-252.5 230.616ZM-258.098 246.564C-260.956 240.614 -258.45 233.474 -252.5 230.616L-251.85 231.968C-257.054 234.467 -259.246 240.712 -256.746 245.915L-258.098 246.564ZM-123.005 527.803L-258.098 246.564L-256.746 245.915L-121.652 527.154L-123.005 527.803ZM-107.056 533.402C-113.006 536.26 -120.146 533.753 -123.005 527.803L-121.652 527.154C-119.153 532.357 -112.909 534.549 -107.706 532.05L-107.056 533.402ZM20.7505 67.1579L26.701 79.5456L25.3489 80.1951L19.3984 67.8074L20.7505 67.1579ZM7.52429 62.5151C12.4587 60.1449 18.3803 62.2235 20.7505 67.1579L19.3984 67.8074C17.3869 63.6198 12.3614 61.8557 8.1738 63.8672L7.52429 62.5151ZM-66.8019 98.2178L7.52429 62.5151L8.1738 63.8672L-66.1524 99.5699L-66.8019 98.2178ZM-71.4447 111.444C-73.8149 106.51 -71.7363 100.588 -66.8019 98.2178L-66.1524 99.5699C-70.34 101.581 -72.1041 106.607 -70.0926 110.795L-71.4447 111.444ZM-65.4942 123.832L-71.4447 111.444L-70.0926 110.795L-64.1421 123.182L-65.4942 123.832ZM-52.268 128.475C-57.2024 130.845 -63.124 128.766 -65.4942 123.832L-64.1421 123.182C-62.1306 127.37 -57.1051 129.134 -52.9175 127.122L-52.268 128.475ZM22.0582 92.7718L-52.268 128.475L-52.9175 127.122L21.4087 91.4197L22.0582 92.7718ZM26.701 79.5456C29.0712 84.48 26.9926 90.4016 22.0582 92.7718L21.4087 91.4197C25.5963 89.4082 27.3604 84.3828 25.3489 80.1951L26.701 79.5456Z" fill="url(#paint0_radial_3_19)"/>
</g>
<defs>
<radialGradient id="paint0_radial_3_19" cx="0" cy="0" r="1" gradientUnits="userSpaceOnUse" gradientTransform="translate(296.5 233) rotate(128.503) scale(540.519 727.738)">
<stop stop-color="#FF5000"/>
<stop offset="1" stop-color="#FF5000" stop-opacity="0"/>
</radialGradient>
<clipPath id="clip0_3_19">
<rect width="354" height="535" fill="white"/>
</clipPath>
</defs>
</svg>
